HIERARCHY
ROOT joint_0
{
	OFFSET 0.000000 0.000000 0.000000
	CHANNELS 6 Xposition Yposition Zposition Zrotation Yrotation Xrotation 
	JOINT joint_1
	{
		OFFSET 6.590088 -1.122192 114.019043
		CHANNELS 3 Zrotation Yrotation Xrotation
		JOINT joint_2
		{
			OFFSET -5.956055 -0.820435 104.151001
			CHANNELS 3 Zrotation Yrotation Xrotation
			JOINT joint_3
			{
				OFFSET -7.343506 -1.103027 103.942993
				CHANNELS 3 Zrotation Yrotation Xrotation
				JOINT joint_4
				{
					OFFSET 3.109131 -2.857056 147.715942
					CHANNELS 3 Zrotation Yrotation Xrotation
					JOINT joint_5
					{
						OFFSET 28.592285 -2.852295 87.703979
						CHANNELS 3 Zrotation Yrotation Xrotation
						End Site
						{
							OFFSET 0.000000 0.000000 0.000000
						}
					}
				}
				JOINT joint_6
				{
					OFFSET -0.332520 -33.687378 82.401978
					CHANNELS 3 Zrotation Yrotation Xrotation
					JOINT joint_7
					{
						OFFSET -7.397461 -168.719177 -22.750977
						CHANNELS 3 Zrotation Yrotation Xrotation
						JOINT joint_8
						{
							OFFSET 17.065918 -24.903137 -272.721069
							CHANNELS 3 Zrotation Yrotation Xrotation
							JOINT joint_9
							{
								OFFSET 33.311279 -37.031616 -278.192993
								CHANNELS 3 Zrotation Yrotation Xrotation
								End Site
								{
									OFFSET 0.000000 0.000000 0.000000
								}
							}
						}
					}
				}
				JOINT joint_10
				{
					OFFSET 3.914307 30.461670 83.552979
					CHANNELS 3 Zrotation Yrotation Xrotation
					JOINT joint_11
					{
						OFFSET 15.543701 166.845459 -30.963013
						CHANNELS 3 Zrotation Yrotation Xrotation
						JOINT joint_12
						{
							OFFSET 35.734863 35.017700 -269.786011
							CHANNELS 3 Zrotation Yrotation Xrotation
							JOINT joint_13
							{
								OFFSET 70.506592 13.977783 -273.320007
								CHANNELS 3 Zrotation Yrotation Xrotation
								End Site
								{
									OFFSET 0.000000 0.000000 0.000000
								}
							}
						}
					}
				}
			}
		}
	}
	JOINT joint_14
	{
		OFFSET -0.314697 -95.093994 -116.004028
		CHANNELS 3 Zrotation Yrotation Xrotation
		JOINT joint_15
		{
			OFFSET -22.490723 2.017883 -455.510986
			CHANNELS 3 Zrotation Yrotation Xrotation
			JOINT joint_16
			{
				OFFSET -46.427490 7.144104 -496.360985
				CHANNELS 3 Zrotation Yrotation Xrotation
				JOINT joint_17
				{
					OFFSET 209.055420 -37.122803 -85.191002
					CHANNELS 3 Zrotation Yrotation Xrotation
					End Site
					{
						OFFSET 0.000000 0.000000 0.000000
					}
				}
			}
		}
	}
	JOINT joint_18
	{
		OFFSET 5.652832 94.642578 -116.244019
		CHANNELS 3 Zrotation Yrotation Xrotation
		JOINT joint_19
		{
			OFFSET -12.379883 -7.332642 -455.843994
			CHANNELS 3 Zrotation Yrotation Xrotation
			JOINT joint_20
			{
				OFFSET -45.227051 -8.172241 -496.457985
				CHANNELS 3 Zrotation Yrotation Xrotation
				JOINT joint_21
				{
					OFFSET 210.522949 -11.530396 -88.809004
					CHANNELS 3 Zrotation Yrotation Xrotation
					End Site
					{
						OFFSET 0.000000 0.000000 0.000000
					}
				}
			}
		}
	}
}
MOTION
Frames: 7
Frame Time: 0.016667
-2421.530273 884.170471 1182.795044 10.407134 -0.446716 0.765800 -0.117025 -0.495642 -0.599223 -0.067524 0.239635 0.176755 -0.088535 -0.162325 -0.042883 0.045629 -0.437751 -0.164677 0.000000 0.000000 0.000000 -2.276391 6.566852 0.548827 0.039461 6.223192 2.034853 2.119767 -15.831478 4.529181 0.000000 0.000000 0.000000 5.525222 4.214119 4.503268 -0.805462 4.022768 -6.167531 -2.342045 -14.659923 -2.095285 0.000000 0.000000 0.000000 -2.580043 2.789316 -1.674584 -2.575934 0.822354 -1.719030 -2.644736 0.666545 -0.955528 0.000000 0.000000 0.000000 1.999153 3.288057 0.949154 2.129781 -1.379788 0.913354 2.134158 0.065881 0.899159 0.000000 0.000000 0.000000 
-2414.840576 885.171631 1184.701050 11.320240 -0.954628 0.594673 -0.300500 0.485441 -0.224941 -0.294139 0.047146 -0.020054 -0.290193 0.018851 0.042188 0.043935 -0.467858 -0.155753 0.000000 0.000000 0.000000 -2.930969 7.062518 0.381435 -0.124731 6.688578 1.522724 2.636327 -23.227168 4.900289 0.000000 0.000000 0.000000 5.687659 5.150228 4.913411 -1.268663 4.790474 -5.661181 -3.905038 -22.318290 -3.463308 0.000000 0.000000 0.000000 -2.788695 2.050078 -1.893325 -2.813437 4.011763 -1.145727 -2.830668 0.150146 -1.120937 0.000000 0.000000 0.000000 1.767505 3.400895 1.378217 1.902458 -0.113843 0.634043 1.895824 -0.019488 0.794585 0.000000 0.000000 0.000000 
-2410.210449 887.054504 1188.245972 12.176545 -0.857321 0.444395 -0.540808 1.221918 0.271535 -0.589794 -0.184554 -0.231607 -0.563463 0.216498 0.072541 0.070600 -0.235432 -0.222988 0.000000 0.000000 0.000000 -3.481455 6.728613 -0.083726 -0.238818 6.341652 0.918257 3.205970 -31.865140 5.476764 0.000000 0.000000 0.000000 5.860244 5.124716 5.320709 -1.721219 4.669785 -6.170524 -5.143317 -30.384636 -3.390035 0.000000 0.000000 0.000000 -3.037724 -1.067010 -2.783224 -3.110352 10.119779 0.285099 -2.897934 0.038718 -1.162657 0.000000 0.000000 0.000000 1.517560 2.389463 1.720947 1.594475 1.688853 0.368405 1.598690 0.385480 0.691755 0.000000 0.000000 0.000000 
-2406.696533 889.412903 1192.755005 12.871434 -0.342587 0.586932 -0.810218 1.628032 0.283989 -0.893023 -0.331377 -0.164559 -0.870955 0.406221 0.061727 0.113678 0.178286 -0.341216 0.000000 0.000000 0.000000 -4.023211 5.565119 -0.367179 -0.311300 5.229881 -0.151458 3.812484 -40.802498 6.165432 0.000000 0.000000 0.000000 5.991147 4.393182 5.524378 -2.055990 3.843829 -6.988697 -6.166932 -38.499558 -2.645584 0.000000 0.000000 0.000000 -3.303478 -5.693061 -4.415531 -3.265601 17.762854 2.121413 -2.552586 1.083803 -0.824186 0.000000 0.000000 0.000000 1.260546 0.669772 1.667366 1.260650 3.786507 0.157980 1.321621 1.266346 0.623041 0.000000 0.000000 0.000000 
-2402.791016 891.392395 1196.838989 13.170237 0.086155 0.875699 -0.998655 1.989741 -0.013178 -1.121593 -0.437379 0.025895 -1.119194 0.519876 0.041082 0.142791 0.547604 -0.422986 0.000000 0.000000 0.000000 -4.362710 3.814029 -0.636993 -0.325017 3.582323 -1.303449 4.414444 -48.267994 6.893091 0.000000 0.000000 0.000000 5.908332 3.188551 5.619285 -2.023731 2.556432 -7.283765 -6.937206 -45.654656 -2.417860 0.000000 0.000000 0.000000 -3.401352 -9.910799 -5.955760 -2.976272 24.102813 3.439785 -1.627178 2.933255 -0.109246 0.000000 0.000000 0.000000 1.004651 -0.631151 1.444695 0.986747 5.390758 0.010853 1.124828 2.283814 0.595961 0.000000 0.000000 0.000000 
-2398.162842 892.589233 1200.149048 12.689970 0.298978 1.078128 -0.983847 2.255373 -0.227616 -1.177707 -0.437356 0.083964 -1.187111 0.535879 0.029321 0.138803 0.844895 -0.402411 0.000000 0.000000 0.000000 -4.437735 1.467450 -0.780301 -0.411469 1.459453 -2.795878 5.075943 -54.792099 7.760269 0.000000 0.000000 0.000000 5.439155 1.525799 5.356273 -1.238169 0.807266 -6.166762 -7.404405 -52.342238 -3.386165 0.000000 0.000000 0.000000 -3.135955 -13.551438 -6.862295 -2.122539 29.195439 4.043489 -0.064973 4.755890 0.841618 0.000000 0.000000 0.000000 0.818878 -1.119255 1.408503 0.829214 6.183982 -0.162925 1.006786 3.205592 0.597153 0.000000 0.000000 0.000000 
-2393.141846 893.406250 1203.034058 11.695434 0.495867 1.282433 -0.855393 2.360267 -0.501817 -1.120225 -0.367329 0.126256 -1.138273 0.502774 0.011492 0.124820 1.134019 -0.343342 0.000000 0.000000 0.000000 -4.390904 -1.693712 -0.358848 -0.728517 -1.248128 -4.828794 5.816034 -60.197726 8.711157 0.000000 0.000000 0.000000 4.756238 -0.736574 4.482425 0.270890 -1.556434 -3.952559 -7.542538 -58.223672 -5.049179 0.000000 0.000000 0.000000 -2.638083 -17.050444 -7.414953 -0.878589 33.386013 4.275709 2.002851 6.542872 1.968613 0.000000 0.000000 0.000000 0.711245 -1.250959 1.395204 0.759090 6.514111 -0.331270 0.944907 4.081238 0.619482 0.000000 0.000000 0.000000 
